HIERARCHY
ROOT Hips
{
	OFFSET 0.00000 0.00000 0.00000
	CHANNELS 6 Xposition Yposition Zposition Zrotation Yrotation Xrotation 
	JOINT LHipJoint
	{
		OFFSET 0 0 0
		CHANNELS 3 Zrotation Yrotation Xrotation
		JOINT LeftUpLeg
		{
			OFFSET 1.36443 -1.53315 0.80540
			CHANNELS 3 Zrotation Yrotation Xrotation
			JOINT LeftLeg
			{
				OFFSET 2.27494 -6.25036 0.00000
				CHANNELS 3 Zrotation Yrotation Xrotation
				JOINT LeftFoot
				{
					OFFSET 2.17461 -5.97470 0.00000
					CHANNELS 3 Zrotation Yrotation Xrotation
					JOINT LeftToeBase
					{
						OFFSET 0.22144 -0.60841 2.08966
						CHANNELS 3 Zrotation Yrotation Xrotation
						End Site
						{
							OFFSET 0.00000 -0.00000 1.09206
						}
					}
				}
			}
		}
	}
	JOINT RHipJoint
	{
		OFFSET 0 0 0
		CHANNELS 3 Zrotation Yrotation Xrotation
		JOINT RightUpLeg
		{
			OFFSET -1.29957 -1.53315 0.80539
			CHANNELS 3 Zrotation Yrotation Xrotation
			JOINT RightLeg
			{
				OFFSET -2.23917 -6.15209 0.00000
				CHANNELS 3 Zrotation Yrotation Xrotation
				JOINT RightFoot
				{
					OFFSET -2.18029 -5.99030 0.00000
					CHANNELS 3 Zrotation Yrotation Xrotation
					JOINT RightToeBase
					{
						OFFSET -0.22354 -0.61416 1.89975
						CHANNELS 3 Zrotation Yrotation Xrotation
						End Site
						{
							OFFSET -0.00000 -0.00000 1.00221
						}
					}
				}
			}
		}
	}
	JOINT LowerBack
	{
		OFFSET 0 0 0
		CHANNELS 3 Zrotation Yrotation Xrotation
		JOINT Spine
		{
			OFFSET -0.04725 2.10352 -0.01215
			CHANNELS 3 Zrotation Yrotation Xrotation
			JOINT Spine1
			{
				OFFSET 0.04471 2.09612 -0.07192
				CHANNELS 3 Zrotation Yrotation Xrotation
				JOINT Neck
				{
					OFFSET 0 0 0
					CHANNELS 3 Zrotation Yrotation Xrotation
					JOINT Neck1
					{
						OFFSET -0.01586 1.38087 0.11506
						CHANNELS 3 Zrotation Yrotation Xrotation
						JOINT Head
						{
							OFFSET -0.01055 1.38869 -0.12115
							CHANNELS 3 Zrotation Yrotation Xrotation
							End Site
							{
								OFFSET -0.00310 1.39537 -0.05348
							}
						}
					}
				}
				JOINT LeftShoulder
				{
					OFFSET 0 0 0
					CHANNELS 3 Zrotation Yrotation Xrotation
					JOINT LeftArm
					{
						OFFSET 2.71932 0.62535 0.37316
						CHANNELS 3 Zrotation Yrotation Xrotation
						JOINT LeftForeArm
						{
							OFFSET 4.47366 -0.00000 0.00000
							CHANNELS 3 Zrotation Yrotation Xrotation
							JOINT LeftHand
							{
								OFFSET 3.19948 -0.00000 -0.00000
								CHANNELS 3 Zrotation Yrotation Xrotation
								JOINT LeftFingerBase
								{
									OFFSET 0 0 0
									CHANNELS 3 Zrotation Yrotation Xrotation
									JOINT LeftHandIndex1
									{
										OFFSET 0.49267 -0.00000 -0.00000
										CHANNELS 3 Zrotation Yrotation Xrotation
										End Site
										{
											OFFSET 0.39720 -0.00000 -0.00000
										}
									}
								}
								JOINT LThumb
								{
									OFFSET 0 0 0
									CHANNELS 3 Zrotation Yrotation Xrotation
									End Site
									{
										OFFSET 0.40327 -0.00000 0.40327
									}
								}
							}
						}
					}
				}
				JOINT RightShoulder
				{
					OFFSET 0 0 0
					CHANNELS 3 Zrotation Yrotation Xrotation
					JOINT RightArm
					{
						OFFSET -2.97334 0.70851 0.47631
						CHANNELS 3 Zrotation Yrotation Xrotation
						JOINT RightForeArm
						{
							OFFSET -4.32690 -0.00000 -0.00000
							CHANNELS 3 Zrotation Yrotation Xrotation
							JOINT RightHand
							{
								OFFSET -3.18960 -0.00000 0.00000
								CHANNELS 3 Zrotation Yrotation Xrotation
								JOINT RightFingerBase
								{
									OFFSET 0 0 0
									CHANNELS 3 Zrotation Yrotation Xrotation
									JOINT RightHandIndex1
									{
										OFFSET -0.46450 -0.00000 -0.00000
										CHANNELS 3 Zrotation Yrotation Xrotation
										End Site
										{
											OFFSET -0.37449 -0.00000 -0.00000
										}
									}
								}
								JOINT RThumb
								{
									OFFSET 0 0 0
									CHANNELS 3 Zrotation Yrotation Xrotation
									End Site
									{
										OFFSET -0.38021 -0.00000 0.38021
									}
								}
							}
						}
					}
				}
			}
		}
	}
}
MOTION
Frames: 7
Frame Time: .0083333
5.6244 25.9702 27.3793 1102.4300 80.5210 383.4830 0.0000 0.0000 0.0000 -22.3028 11.5511 -32.5769 6.1093 14.5334 45.4188 178.6641 -31.6795 -14.9442 0.0008 0.1842 0.5061 0.0000 0.0000 0.0000 22.3804 16.3896 -9.6599 -5.1255 -13.5237 41.3619 -2.3675 -14.4051 -37.0435 -0.6414 -5.1235 14.2612 -4.3009 -3.5555 -2.1342 3.7739 -4.6643 -0.6927 6.1572 -2.3490 1.1417 6.7152 -4.8188 -17.4679 -19.5454 -3.1329 25.0077 -8.8006 -3.0219 10.3831 -0.0000 0.0000 0.0000 -86.8541 4.5597 31.8182 18.5164 -28.8134 -4.7955 -0.0000 0.0000 -17.8496 27.4850 2.5953 1.3495 -7.1250 0.0000 -0.0000 0.7234 32.9041 -0.2144 -0.0000 0.0000 0.0000 76.4984 -2.8159 15.1703 -13.4318 21.9167 -2.6123 0.0000 0.0000 8.9072 -13.0100 -31.1070 6.8072 7.1250 -0.0000 -0.0000 21.6378 -60.4321 -8.3723
5.6343 25.9658 27.3816 1101.9600 80.2656 382.8260 0.0000 0.0000 0.0000 -22.2446 11.8391 -32.4712 6.1488 14.5710 45.5760 178.6804 -31.6870 -15.0542 0.0010 0.2004 0.5507 0.0000 0.0000 0.0000 22.3991 16.3002 -9.4575 -5.1284 -13.5269 41.3745 -2.3697 -14.2147 -36.9131 -0.6439 -5.1334 14.2894 -4.3369 -3.4825 -2.0362 3.7667 -4.5695 -0.6599 6.1801 -2.3017 1.1096 5.8682 -5.0983 -17.0605 -18.9846 -3.5194 24.3095 -8.3777 -3.2021 10.0327 0.0000 -0.0000 0.0000 -86.8748 4.6993 31.3657 17.9366 -28.0759 -4.5194 -0.0000 0.0000 -17.3388 27.0228 2.6596 1.3557 -7.1250 0.0000 -0.0000 0.3470 32.9653 -0.1023 0.0000 -0.0000 0.0000 76.3488 -2.7042 15.0171 -13.3116 21.7420 -2.5675 0.0000 0.0000 9.3894 -12.1099 -31.2027 6.3428 7.1250 -0.0000 -0.0000 22.6621 -60.3072 -8.7247
5.6416 25.9616 27.3833 1101.6700 80.0757 382.3820 0.0000 0.0000 0.0000 -22.1594 11.8519 -32.2750 6.1864 14.6066 45.7252 178.6827 -31.7845 -15.1699 0.0012 0.2202 0.6050 0.0000 0.0000 0.0000 22.3858 16.1157 -9.3360 -5.1326 -13.5316 41.3924 -2.3845 -13.9500 -36.7941 -0.6500 -5.1572 14.3576 -4.3654 -3.4065 -1.8945 3.7386 -4.4717 -0.6784 6.1813 -2.2491 0.9973 6.4662 -5.0032 -16.9456 -19.4083 -3.3684 24.8337 -8.6746 -3.1188 10.1870 0.0000 -0.0000 0.0000 -86.7313 5.0412 31.4145 17.5041 -27.5175 -4.3177 -0.0000 0.0000 -17.2186 26.9023 2.5830 1.3099 -7.1250 0.0000 -0.0000 0.2503 32.8751 -0.0743 0.0000 -0.0000 0.0000 76.2645 -2.6184 14.5867 -13.2569 21.6624 -2.5473 0.0000 0.0000 10.2117 -10.5995 -31.0624 5.5152 7.1250 -0.0000 -0.0000 24.1157 -59.8267 -9.0438
5.6466 25.9615 27.3846 1101.4700 79.9508 382.1480 0.0000 0.0000 0.0000 -22.0125 11.3687 -32.0225 6.2246 14.6425 45.8765 178.6105 -32.1151 -15.0693 0.0002 0.0805 0.2211 0.0000 0.0000 0.0000 22.3405 15.9073 -9.4011 -5.1382 -13.5377 41.4163 -2.4154 -13.6407 -36.7283 -0.6621 -5.2040 14.4915 -4.3605 -3.3569 -1.8493 3.7070 -4.4062 -0.7361 6.1533 -2.2119 0.9002 6.3214 -5.1264 -16.5127 -19.2968 -3.5618 24.5504 -8.5696 -3.1926 9.9749 -0.0000 0.0000 0.0000 -86.5286 5.4028 31.5556 17.1335 -27.0334 -4.1478 -0.0000 0.0000 -17.2997 27.1924 2.8318 1.4540 -7.1250 0.0000 -0.0000 0.4825 33.1625 -0.1400 -0.0000 0.0000 0.0000 76.2692 -2.5735 14.4624 -13.2199 21.6085 -2.5337 0.0000 0.0000 10.3647 -10.0598 -31.3214 5.2690 7.1250 -0.0000 -0.0000 24.8903 -59.9352 -9.4214
5.6522 25.9629 27.3853 1101.2200 79.8020 381.8600 0.0000 0.0000 0.0000 -21.8317 10.8065 -31.7261 6.2673 14.6825 46.0454 178.4911 -32.4952 -14.7386 0.0009 -0.1899 -0.5218 0.0000 0.0000 0.0000 22.3098 15.7790 -9.4257 -5.1445 -13.5447 41.4432 -2.4269 -13.4517 -36.6514 -0.6546 -5.1750 14.4084 -4.3590 -3.3190 -1.8568 3.6942 -4.3552 -0.7381 6.1409 -2.1860 0.8941 6.0757 -5.2362 -16.1160 -19.1499 -3.7286 24.1829 -8.4265 -3.2597 9.7524 -0.0000 -0.0000 0.0000 -86.4442 5.6227 31.3585 16.7660 -26.5483 -3.9822 -0.0000 0.0000 -17.2128 27.5371 3.4478 1.7960 -7.1250 0.0000 -0.0000 0.7550 33.8651 -0.2062 -0.0000 -0.0000 0.0000 76.1872 -2.4987 14.8661 -13.1874 21.5611 -2.5217 0.0000 0.0000 10.0287 -13.1210 -30.8022 6.8067 7.1250 -0.0000 -0.0000 21.2756 -60.1772 -8.0945
5.6590 25.9611 27.3853 1101.2800 79.5528 381.7670 0.0000 0.0000 0.0000 -21.7468 10.6162 -31.4420 6.3178 14.7294 46.2441 178.4424 -32.5588 -14.5065 0.0031 -0.3569 -0.9805 0.0000 0.0000 0.0000 22.2146 15.6562 -9.3213 -5.1519 -13.5529 41.4751 -2.3782 -13.4674 -36.4096 -0.5926 -4.9286 13.7049 -4.4437 -3.2610 -1.8012 3.6457 -4.2793 -0.6798 6.1430 -2.1506 0.9150 5.8692 -5.3136 -15.7849 -19.0083 -3.8534 23.8745 -8.2997 -3.3066 9.5708 0.0000 -0.0000 0.0000 -86.4073 5.7920 30.8216 16.3881 -26.0440 -3.8148 -0.0000 0.0000 -16.8386 27.6613 3.3428 1.7506 -7.1250 0.0000 -0.0000 0.8584 33.7515 -0.2368 0.0000 -0.0000 0.0000 76.0725 -2.4179 15.3155 -13.2113 21.5961 -2.5305 0.0000 0.0000 10.1991 -15.7553 -30.3613 8.1158 7.1250 -0.0000 -0.0000 18.1350 -60.3863 -6.9389
5.6677 25.9601 27.3834 1101.2700 79.2463 381.6110 0.0000 0.0000 0.0000 -21.6535 10.5153 -31.1953 6.3799 14.7867 46.4881 178.4755 -32.4701 -14.6147 0.0031 -0.3598 -0.9885 0.0000 0.0000 0.0000 22.0786 15.4401 -9.2817 -5.1598 -13.5615 41.5086 -2.3539 -13.2955 -36.1578 -0.5591 -4.7894 13.3090 -4.5126 -3.1856 -1.7593 3.5809 -4.1798 -0.6332 6.1193 -2.1027 0.9257 5.8038 -5.3557 -15.4595 -18.9481 -3.9410 23.6129 -8.2307 -3.3323 9.4061 0.0000 0.0000 0.0000 -86.3591 5.9752 30.2058 16.0420 -25.5776 -3.6641 -0.0000 0.0000 -16.3636 27.7801 2.8708 1.5113 -7.1250 0.0000 -0.0000 0.9610 33.2229 -0.2774 0.0000 0.0000 0.0000 76.0931 -2.3978 15.7065 -13.3564 21.8072 -2.5842 0.0000 0.0000 9.7001 -14.8939 -30.7832 7.7514 7.1250 -0.0000 -0.0000 19.3791 -60.5785 -7.5247
